HIERARCHY
ROOT Hips
{
  OFFSET 5.72205e-005 65.662 3.42586
  CHANNELS 6 Xposition Yposition Zposition Zrotation Xrotation Yrotation
  JOINT Chest
  {
    OFFSET 0 8.7983 -4.7612
    CHANNELS 3 Zrotation Xrotation Yrotation
    JOINT Chest2
    {
      OFFSET 0 8.0291 0.4195
      CHANNELS 3 Zrotation Xrotation Yrotation
      JOINT Chest3
      {
        OFFSET 0 9.9351 -2.2114
        CHANNELS 3 Zrotation Xrotation Yrotation
        JOINT Neck
        {
          OFFSET 0 22.3885 -0.4656
          CHANNELS 3 Zrotation Xrotation Yrotation
          JOINT Head
          {
            OFFSET -0.0001 12.643 3.4389
            CHANNELS 3 Zrotation Xrotation Yrotation
            End Site
            {
              OFFSET 0.0001 17.6655 0.5274
            }
          }
        }
        JOINT LeftCollar
        {
          OFFSET 2.2603 21.606 7.4023
          CHANNELS 3 Zrotation Xrotation Yrotation
          JOINT LeftShoulder
          {
            OFFSET 13.5163 -1.1332 -5.0146
            CHANNELS 3 Zrotation Xrotation Yrotation
            JOINT LeftElbow
            {
              OFFSET -0.0995 -28.05 -0.2431
              CHANNELS 3 Zrotation Xrotation Yrotation
              JOINT LeftWrist
              {
                OFFSET 0.0679 -23.3996 -0.1402
                CHANNELS 3 Zrotation Xrotation Yrotation
                JOINT LeftFinger1
                {
                  OFFSET 0.7932 -9.069 2.5189
                  CHANNELS 3 Zrotation Xrotation Yrotation
                  JOINT LeftFinger11
                  {
                    OFFSET -0.8272 -3.3923 0.5977
                    CHANNELS 3 Zrotation Xrotation Yrotation
                    JOINT LeftFinger12
                    {
                      OFFSET -0.5649 -2.3158 0.4082
                      CHANNELS 3 Zrotation Xrotation Yrotation
                      End Site
                      {
                        OFFSET -0.4919 -1.6479 0.2673
                      }
                    }
                  }
                }
                JOINT LeftFinger2
                {
                  OFFSET 0.9159 -9.2044 0.2193
                  CHANNELS 3 Zrotation Xrotation Yrotation
                  JOINT LeftFinger21
                  {
                    OFFSET 0.0117 -4.1944 -0.0248
                    CHANNELS 3 Zrotation Xrotation Yrotation
                    JOINT LeftFinger22
                    {
                      OFFSET 0.0071 -2.3249 -0.0142
                      CHANNELS 3 Zrotation Xrotation Yrotation
                      End Site
                      {
                        OFFSET -0.1475 -2.0882 0.0028
                      }
                    }
                  }
                }
                JOINT LeftFinger3
                {
                  OFFSET 0.6113 -8.7231 -2.0637
                  CHANNELS 3 Zrotation Xrotation Yrotation
                  JOINT LeftFinger31
                  {
                    OFFSET -0.1927 -3.8059 -0.2383
                    CHANNELS 3 Zrotation Xrotation Yrotation
                    JOINT LeftFinger32
                    {
                      OFFSET -0.1091 -2.1688 -0.1362
                      CHANNELS 3 Zrotation Xrotation Yrotation
                      End Site
                      {
                        OFFSET -0.2358 -1.9176 -0.0906
                      }
                    }
                  }
                }
                JOINT LeftFinger4
                {
                  OFFSET -0.6151 -8.0947 -3.5641
                  CHANNELS 3 Zrotation Xrotation Yrotation
                  JOINT LeftFinger41
                  {
                    OFFSET -0.4882 -2.341 -0.6462
                    CHANNELS 3 Zrotation Xrotation Yrotation
                    JOINT LeftFinger42
                    {
                      OFFSET -0.3575 -1.7167 -0.4742
                      CHANNELS 3 Zrotation Xrotation Yrotation
                      End Site
                      {
                        OFFSET -0.4187 -1.5237 -0.3496
                      }
                    }
                  }
                }
                JOINT LeftFinger0
                {
                  OFFSET -1.42 -1.8761 1.4223
                  CHANNELS 3 Zrotation Xrotation Yrotation
                  JOINT LeftFinger01
                  {
                    OFFSET -1.1471 -3.4929 2.6334
                    CHANNELS 3 Zrotation Xrotation Yrotation
                    JOINT LeftFinger02
                    {
                      OFFSET -0.823 -2.3 1.6571
                      CHANNELS 3 Zrotation Xrotation Yrotation
                      End Site
                      {
                        OFFSET -0.5822 -1.6914 1.1582
                      }
                    }
                  }
                }
              }
            }
          }
        }
        JOINT RightCollar
        {
          OFFSET -2.2603 21.606 7.4023
          CHANNELS 3 Zrotation Xrotation Yrotation
          JOINT RightShoulder
          {
            OFFSET -13.5187 -1.1334 -5.0155
            CHANNELS 3 Zrotation Xrotation Yrotation
            JOINT RightElbow
            {
              OFFSET 0.0994 -28.0499 -0.2431
              CHANNELS 3 Zrotation Xrotation Yrotation
              JOINT RightWrist
              {
                OFFSET -0.0679 -23.3996 -0.1402
                CHANNELS 3 Zrotation Xrotation Yrotation
                JOINT RightFinger1
                {
                  OFFSET -0.7932 -9.0691 2.5189
                  CHANNELS 3 Zrotation Xrotation Yrotation
                  JOINT RightFinger11
                  {
                    OFFSET 0.8272 -3.3923 0.5977
                    CHANNELS 3 Zrotation Xrotation Yrotation
                    JOINT RightFinger12
                    {
                      OFFSET 0.565 -2.3158 0.4082
                      CHANNELS 3 Zrotation Xrotation Yrotation
                      End Site
                      {
                        OFFSET 0.4919 -1.6479 0.2673
                      }
                    }
                  }
                }
                JOINT RightFinger2
                {
                  OFFSET -0.916 -9.2044 0.2193
                  CHANNELS 3 Zrotation Xrotation Yrotation
                  JOINT RightFinger21
                  {
                    OFFSET -0.0117 -4.1944 -0.0248
                    CHANNELS 3 Zrotation Xrotation Yrotation
                    JOINT RightFinger22
                    {
                      OFFSET -0.0071 -2.3249 -0.0142
                      CHANNELS 3 Zrotation Xrotation Yrotation
                      End Site
                      {
                        OFFSET 0.1475 -2.0882 0.0028
                      }
                    }
                  }
                }
                JOINT RightFinger3
                {
                  OFFSET -0.6113 -8.7231 -2.0637
                  CHANNELS 3 Zrotation Xrotation Yrotation
                  JOINT RightFinger31
                  {
                    OFFSET 0.1927 -3.8059 -0.2383
                    CHANNELS 3 Zrotation Xrotation Yrotation
                    JOINT RightFinger32
                    {
                      OFFSET 0.1091 -2.1688 -0.1362
                      CHANNELS 3 Zrotation Xrotation Yrotation
                      End Site
                      {
                        OFFSET 0.2358 -1.9176 -0.0906
                      }
                    }
                  }
                }
                JOINT RightFinger4
                {
                  OFFSET 0.6151 -8.0947 -3.564
                  CHANNELS 3 Zrotation Xrotation Yrotation
                  JOINT RightFinger41
                  {
                    OFFSET 0.4882 -2.341 -0.6462
                    CHANNELS 3 Zrotation Xrotation Yrotation
                    JOINT RightFinger42
                    {
                      OFFSET 0.3574 -1.7166 -0.4742
                      CHANNELS 3 Zrotation Xrotation Yrotation
                      End Site
                      {
                        OFFSET 0.4187 -1.5237 -0.3496
                      }
                    }
                  }
                }
                JOINT RightFinger0
                {
                  OFFSET 1.4199 -1.8761 1.4221
                  CHANNELS 3 Zrotation Xrotation Yrotation
                  JOINT RightFinger01
                  {
                    OFFSET 1.1472 -3.4929 2.6336
                    CHANNELS 3 Zrotation Xrotation Yrotation
                    JOINT RightFinger02
                    {
                      OFFSET 0.8229 -2.3 1.6571
                      CHANNELS 3 Zrotation Xrotation Yrotation
                      End Site
                      {
                        OFFSET 0.5822 -1.6914 1.1582
                      }
                    }
                  }
                }
              }
            }
          }
        }
      }
    }
  }
  JOINT RightHip
  {
    OFFSET -9.412 3.9771 -0.7758
    CHANNELS 3 Zrotation Xrotation Yrotation
    JOINT RightKnee
    {
      OFFSET -0.7531 -40.938 0
      CHANNELS 3 Zrotation Xrotation Yrotation
      JOINT RightAnkle
      {
        OFFSET 0 -40.1986 0
        CHANNELS 3 Zrotation Xrotation Yrotation
        JOINT RightToe
        {
          OFFSET 0 -4.4182 9.239
          CHANNELS 3 Zrotation Xrotation Yrotation
          End Site
          {
            OFFSET 0 0 6.1981
          }
        }
      }
    }
  }
  JOINT LeftHip
  {
    OFFSET 9.4119 3.9773 -0.7758
    CHANNELS 3 Zrotation Xrotation Yrotation
    JOINT LeftKnee
    {
      OFFSET 0.7532 -40.9383 0
      CHANNELS 3 Zrotation Xrotation Yrotation
      JOINT LeftAnkle
      {
        OFFSET 0 -40.1986 0
        CHANNELS 3 Zrotation Xrotation Yrotation
        JOINT LeftToe
        {
          OFFSET 0 -4.4182 9.239
          CHANNELS 3 Zrotation Xrotation Yrotation
          End Site
          {
            OFFSET 0 0 6.1981
          }
        }
      }
    }
  }
}
MOTION
Frames:	4
Frame Time:	0.0333333
5.72205e-005 65.662 3.42586 0 0 -0 0 0 -0 0 0 -0 0 0 -0 0 0 -0 0 0 -0 0 0 -12.5014 88.1196 14.2451 10.6914 -0.00160068 -0.00239207 0.000740045 -8.4365e-005 7.00714e-005 -9.52055e-007 9.93923e-017 -1.98785e-016 -1.59028e-015 9.93923e-017 -5.96354e-016 -1.59028e-015 -9.93923e-017 -5.96354e-016 -1.59028e-015 9.93923e-017 -1.98785e-016 -1.59028e-015 -0.0128176 0.00232552 8.52707e-005 9.93923e-017 5.96354e-016 -0 9.93923e-017 -1.98785e-016 -1.59028e-015 -0.0160551 0.00299681 0.000857156 -2.48481e-016 0 3.18055e-015 9.93923e-017 -1.98785e-016 -1.59028e-015 -0.0125865 0.0031206 0.00282719 0 1.98785e-016 -0 9.93923e-017 -1.98785e-016 -1.59028e-015 9.93923e-017 -5.96354e-016 -1.59028e-015 -9.93923e-017 -5.96354e-016 -1.59028e-015 -0.865644 0.16582 7.03859 -88.0329 10.2057 -10.5567 0.0015593 -0.00248883 -0.000788628 7.87605e-005 4.10553e-005 1.24965e-005 -3.97569e-016 -7.95139e-016 3.18055e-015 -1.98785e-016 -3.97569e-016 3.18055e-015 -1.98785e-016 0 3.18055e-015 -3.97569e-016 -7.95139e-016 3.18055e-015 0.0129473 0.00231697 -8.70038e-005 9.93923e-017 -7.95139e-016 1.59028e-015 -3.97569e-016 -7.95139e-016 3.18055e-015 0.0163314 0.00303369 -0.000872333 3.97569e-016 7.95139e-016 -3.18055e-015 -3.97569e-016 -7.95139e-016 3.18055e-015 0.0145763 0.00367772 -0.00326275 9.93923e-017 -3.97569e-016 -0 -3.97569e-016 -7.95139e-016 3.18055e-015 -1.98785e-016 -3.97569e-016 3.18055e-015 -1.98785e-016 0 3.18055e-015 3.42482 1.32465 -0.0626183 0.000117508 0.717283 0.000978199 -3.4257 -2.04197 -0.0604716 6.47761e-025 0 -0 -3.42483 1.34017 0.0627307 -0.000193936 0.682302 -0.0013703 3.42574 -2.02253 0.0595886 -8.45714e-024 0 -7.40531e-025 
1.63366 42.0566 -2.42276 8.64966e-009 38.9981 7.99158e-008 0.259335 -4.77612 -0.262188 0.499263 -9.55334 -0.50524 0.499265 -9.55337 -0.505241 3.97166e-006 -0.260608 -4.33054e-006 3.34714e-008 -0.344464 -2.17965e-007 -25.412 -16.2039 -50.1756 41.35 25.5405 -38.2741 -15.9059 -31.3931 -7.37258 18.919 -20.1951 42.1035 6.12693e-006 3.83742e-006 -1.97864e-006 -3.50136e-006 -8.26293e-006 -8.8978e-007 2.83144e-006 9.99513e-006 1.41338e-006 6.12693e-006 3.83742e-006 -1.97864e-006 -0.0128013 0.00233515 9.55171e-005 -1.6538e-006 5.02263e-006 -4.78272e-006 6.12693e-006 3.83742e-006 -1.97864e-006 -0.0160638 0.00299596 0.000853897 2.8103e-006 -1.55013e-006 4.33628e-007 6.12693e-006 3.83742e-006 -1.97864e-006 -0.012567 0.00311466 0.00282083 4.33516e-007 -1.66568e-006 -4.59987e-006 6.12693e-006 3.83742e-006 -1.97864e-006 -3.50136e-006 -8.26293e-006 -8.8978e-007 2.83144e-006 9.99513e-006 1.41338e-006 3.71956 13.552 32.922 -38.6531 31.5823 -21.0457 84.5059 -50.0934 54.7193 -30.7263 -18.4205 -25.0392 -7.95139e-016 3.18055e-015 -0 -0 0 1.59028e-015 -7.95139e-016 -3.18055e-015 -3.18055e-015 -7.95139e-016 3.18055e-015 -0 0.0129347 0.00230983 -8.90164e-005 1.59028e-015 0 7.95139e-016 -7.95139e-016 3.18055e-015 -0 0.0163393 0.00302181 -0.000880431 7.95139e-016 6.36111e-015 -2.38542e-015 -7.95139e-016 3.18055e-015 -0 0.0145824 0.00367292 -0.00326547 7.95139e-016 6.36111e-015 -7.95139e-016 -7.95139e-016 3.18055e-015 -0 -0 0 1.59028e-015 -7.95139e-016 -3.18055e-015 -3.18055e-015 -59.0224 -26.3752 -23.983 -178.1 83.0625 176.934 52.1931 33.3822 -57.7236 2.94165e-006 2.13252e-007 4.19288e-006 59.0037 -26.3867 23.956 178.227 83.0536 -177.077 -52.2239 33.3608 57.7302 8.65386e-006 -1.53802e-006 -3.81404e-006 
1.63366 41.8812 -2.00087 1.07292e-007 38.1668 -1.67447e-007 0.257897 -4.57631 -0.263732 0.49697 -9.15375 -0.50917 0.496971 -9.15377 -0.509171 1.72085e-006 -0.519731 -1.62502e-006 -5.16349e-008 -0.684386 -2.33532e-007 -25.0371 -16.4414 -50.1301 40.9219 25.6313 -38.1195 -16.092 -31.6032 -7.52015 19.1912 -20.1617 41.9943 3.18055e-015 0 3.18055e-015 -3.18055e-015 0 6.36111e-015 -3.18055e-015 6.36111e-015 3.18055e-015 3.18055e-015 0 3.18055e-015 -0.0128155 0.00232167 9.02929e-005 0 0 -3.18055e-015 3.18055e-015 0 3.18055e-015 -0.0160399 0.00297547 0.000856543 -6.36111e-015 -6.36111e-015 -0 3.18055e-015 0 3.18055e-015 -0.012619 0.00311709 0.00283122 3.18055e-015 0 -0 3.18055e-015 0 3.18055e-015 -3.18055e-015 0 6.36111e-015 -3.18055e-015 6.36111e-015 3.18055e-015 3.71955 13.5521 32.922 -38.6529 31.5827 -21.0458 84.5064 -50.0935 54.72 -30.8693 -18.7009 -25.0482 -7.95139e-016 3.18055e-015 1.59028e-015 0 3.18055e-015 -0 7.95139e-016 0 -7.95139e-016 -7.95139e-016 3.18055e-015 1.59028e-015 0.012931 0.00230587 -8.17279e-005 -1.59028e-015 3.18055e-015 -0 -7.95139e-016 3.18055e-015 1.59028e-015 0.0163054 0.00303862 -0.000872348 -1.59028e-015 0 7.95139e-016 -7.95139e-016 3.18055e-015 1.59028e-015 0.0145447 0.00366377 -0.0032516 -1.59028e-015 -1.27222e-014 -7.95139e-016 -7.95139e-016 3.18055e-015 1.59028e-015 0 3.18055e-015 -0 7.95139e-016 0 -7.95139e-016 -59.1367 -25.2551 -23.7505 -178.152 83.4991 176.978 51.4504 33.7651 -57.2139 -9.96853e-006 -4.34291e-006 5.03129e-006 59.1179 -25.2669 23.7239 178.291 83.4907 -177.131 -51.4818 33.7442 57.2214 1.49089e-015 9.54166e-015 -3.37934e-015 
1.63366 41.7074 -1.5784 2.25478e-008 37.3348 -2.35815e-007 0.25646 -4.37644 -0.265263 0.494703 -8.75396 -0.513064 0.494704 -8.75399 -0.513066 2.90048e-006 -0.779027 -3.39364e-006 -3.90118e-007 -1.02453 5.62447e-007 -24.6615 -16.6788 -50.083 40.5185 25.6763 -37.9756 -16.321 -31.7925 -7.66182 19.4634 -20.1287 41.8849 8.52995e-007 -1.19934e-006 2.778e-006 6.70011e-007 -3.17341e-006 -5.23473e-007 8.52995e-007 4.38135e-008 2.778e-006 8.52995e-007 -1.19934e-006 2.778e-006 -0.0127911 0.00232582 8.99344e-005 0 0 -3.18055e-015 8.52995e-007 -1.19934e-006 2.778e-006 -0.016092 0.00300605 0.00086097 3.53113e-031 6.36111e-015 -3.18055e-015 8.52995e-007 -1.19934e-006 2.778e-006 -0.0126149 0.00313149 0.00283518 2.14046e-006 -2.87866e-006 9.58265e-007 8.52995e-007 -1.19934e-006 2.778e-006 6.70011e-007 -3.17341e-006 -5.23473e-007 8.52995e-007 4.38135e-008 2.778e-006 3.71955 13.552 32.922 -38.6529 31.5828 -21.0458 84.5065 -50.0935 54.7201 -31.0127 -18.9813 -25.058 -7.95139e-016 6.36111e-015 -2.38542e-015 1.76556e-031 3.18055e-015 -3.18055e-015 -7.95139e-016 1.59028e-014 -2.38542e-015 -7.95139e-016 6.36111e-015 -2.38542e-015 0.0129713 0.00231638 -8.94562e-005 -2.38542e-015 -1.27222e-014 -0 -7.95139e-016 6.36111e-015 -2.38542e-015 0.0163389 0.00303759 -0.000875329 7.95139e-016 3.18055e-015 -7.95139e-016 -7.95139e-016 6.36111e-015 -2.38542e-015 0.0145676 0.00366813 -0.00325986 -7.95139e-016 3.18055e-015 2.38542e-015 -7.95139e-016 6.36111e-015 -2.38542e-015 1.76556e-031 3.18055e-015 -3.18055e-015 -7.95139e-016 1.59028e-014 -2.38542e-015 -59.2538 -24.1338 -23.5172 -178.215 83.9352 177.032 50.6992 34.1414 -56.6952 6.68609e-006 -3.37234e-006 -8.92423e-006 59.235 -24.1456 23.491 178.364 83.9276 -177.195 -50.7314 34.121 56.7036 1.02838e-005 3.29174e-006 -3.03554e-006 
